<svg width="72" height="71" viewBox="0 0 72 71" fill="none" xmlns="http://www.w3.org/2000/svg">
<g clip-path="url(#clip0_65_2)">
<path d="M21.5015 47.9932C16.5608 47.9987 12.0557 48.2126 7.58188 47.9307C3.53703 47.6759 0.659831 45.9542 0.948668 41.0834C1.18459 37.1049 1.08995 33.0986 0.970083 29.1098C0.880247 26.1203 2.13077 24.8963 5.11594 24.9642C10.1039 25.0776 15.0964 24.9793 20.0869 24.9948C23.5429 25.0056 25.2215 23.6006 25.0371 19.8622C24.7997 15.0501 25.0682 10.2152 24.9707 5.39312C24.9072 2.24624 26.1517 0.840283 29.4028 0.939464C34.2223 1.08649 39.0512 1.04644 43.8733 0.946355C46.8759 0.884035 48.078 2.2426 48.0227 5.1614C47.9407 9.48499 48.1718 13.8217 47.9077 18.1306C47.8187 19.5832 46.7807 21.0709 45.9109 22.3639C43.7304 25.6053 40.1923 28.4591 39.3585 31.9798C37.0838 41.5846 30.9215 46.1028 21.5015 47.9932Z" fill="#ABCCFC"/>
<path d="M38.3275 40.2096C40.8461 35.3171 42.9563 30.6156 45.5018 26.163C46.1448 25.0381 48.1733 24.123 49.5734 24.1114C56.5967 24.0535 63.6227 24.3274 71.0045 24.4928C71.0045 31.4934 71.2667 37.4768 70.8082 43.4044C70.7022 44.775 68.2333 46.8912 66.6786 47.0589C60.3398 47.7425 53.9337 47.803 46.9992 48.1182C46.9992 54.0843 46.8654 59.857 47.0522 65.6193C47.155 68.7924 46.1914 70.2155 42.8263 70.0481C38.6757 69.8417 34.5048 69.9139 30.3468 70.023C26.049 70.1356 23.9351 68.2212 23.9883 63.8771C24.0412 59.5541 23.9999 55.2299 23.9999 50.5188C29.7813 48.8072 35.0834 46.1973 38.3275 40.2096Z" fill="#0063F7"/>
</g>
<defs>
<clipPath id="clip0_65_2">
<rect width="72" height="71" fill="white"/>
</clipPath>
</defs>
</svg>
